<?xml version="1.0" standalone="no"?>
<!DOCTYPE svg PUBLIC "-//W3C//DTD SVG 20010904//EN"
 "http://www.w3.org/TR/2001/REC-SVG-20010904/DTD/svg10.dtd">
<svg version="1.0" xmlns="http://www.w3.org/2000/svg"
 width="692.000000pt" height="712.000000pt" viewBox="0 0 692.000000 712.000000"
 preserveAspectRatio="xMidYMid meet">
<metadata>
Created by potrace 1.15, written by Peter Selinger 2001-2017
</metadata>
<g transform="translate(0.000000,712.000000) scale(0.100000,-0.100000)"
fill="#000000" stroke="none">
<path d="M3510 6781 c-41 -5 -100 -13 -130 -19 -30 -6 -80 -14 -110 -17 -63
-7 -263 -81 -383 -142 -64 -33 -75 -40 -124 -75 -28 -21 -55 -38 -61 -38 -6 0
-28 -16 -49 -36 -21 -19 -57 -47 -80 -60 -24 -14 -43 -30 -43 -36 0 -5 -36
-45 -80 -89 -44 -43 -80 -85 -80 -93 0 -8 -13 -26 -30 -39 -16 -14 -43 -47
-59 -74 -45 -73 -141 -264 -141 -279 0 -11 -26 -75 -37 -93 -1 -2 -26 6 -55
17 -101 40 -181 52 -355 52 -180 0 -258 -14 -369 -66 -28 -13 -56 -24 -62 -24
-22 0 -119 -55 -179 -102 -34 -26 -65 -48 -69 -48 -13 0 -175 -174 -189 -203
-8 -18 -29 -50 -46 -72 -16 -22 -37 -53 -45 -70 -8 -16 -18 -37 -23 -45 -20
-32 -73 -259 -78 -331 l-6 -76 -61 -31 c-33 -17 -83 -50 -111 -73 -73 -61
-145 -129 -145 -137 0 -5 -18 -26 -39 -48 -35 -35 -51 -65 -118 -214 -61 -135
-88 -324 -63 -445 14 -68 38 -153 50 -176 4 -8 23 -51 41 -95 32 -76 75 -142
126 -193 13 -14 32 -38 41 -53 9 -15 21 -28 27 -28 5 0 33 -20 60 -45 28 -25
54 -45 58 -45 5 0 25 -13 45 -28 20 -16 57 -37 82 -46 25 -10 54 -23 64 -28
11 -6 58 -24 105 -41 l86 -31 473 -4 472 -3 0 105 0 106 -409 0 c-369 0 -418
2 -505 20 -53 11 -105 24 -116 30 -10 5 -27 10 -37 10 -10 0 -45 20 -78 45
-33 25 -67 45 -75 45 -22 1 -144 134 -191 210 -23 35 -47 82 -54 105 -8 22
-20 58 -29 80 -11 29 -15 79 -16 179 0 127 2 145 30 227 27 83 56 137 105 199
40 51 161 161 195 176 19 9 41 22 49 28 7 6 43 22 79 36 l64 25 -1 132 c-2
119 1 139 25 210 14 43 39 98 54 123 15 25 41 70 57 100 32 59 215 250 240
250 8 0 41 18 73 40 101 69 309 117 453 106 171 -14 340 -61 420 -118 34 -24
85 -40 92 -28 3 5 14 50 25 99 10 50 33 123 50 163 49 113 56 130 71 168 15
39 116 193 130 198 5 2 9 10 9 18 0 19 41 74 54 74 6 0 31 25 56 56 25 31 61
67 80 79 19 13 62 46 95 74 32 28 64 51 70 51 6 0 30 11 55 25 107 60 121 66
370 135 114 32 118 33 345 33 210 1 238 -1 320 -22 50 -13 102 -29 116 -37 15
-7 49 -18 75 -24 27 -6 88 -33 136 -60 49 -28 90 -50 94 -50 9 0 99 -63 102
-72 2 -4 8 -8 14 -8 6 0 19 -11 30 -25 11 -14 24 -25 30 -25 17 0 108 -81 108
-95 0 -24 15 -25 101 -9 95 18 333 15 383 -5 15 -6 57 -15 92 -20 42 -6 98
-26 167 -60 58 -28 108 -51 111 -51 6 0 32 -20 66 -50 9 -8 24 -19 32 -25 76
-50 147 -123 237 -244 19 -25 37 -48 41 -51 3 -3 14 -30 24 -61 9 -31 23 -64
30 -75 26 -38 64 -171 76 -262 21 -161 -4 -317 -77 -480 -12 -29 -23 -59 -23
-67 0 -7 -4 -17 -10 -20 -5 -3 -10 -17 -10 -30 0 -19 9 -26 47 -39 26 -9 54
-16 62 -16 9 0 39 -11 66 -25 28 -13 55 -25 62 -25 10 0 43 -21 188 -120 12
-8 37 -33 56 -55 19 -22 40 -46 47 -53 7 -8 20 -28 28 -45 9 -18 22 -39 29
-47 28 -34 66 -190 71 -292 5 -86 2 -116 -16 -178 -11 -41 -24 -88 -27 -105
-3 -16 -14 -42 -25 -57 -10 -15 -29 -46 -42 -69 -34 -58 -164 -199 -185 -199
-10 0 -35 -15 -57 -33 -48 -42 -69 -53 -116 -61 -21 -4 -38 -10 -38 -14 0 -4
-35 -14 -77 -22 -59 -11 -185 -15 -505 -18 l-428 -3 0 -105 0 -105 473 4 472
3 74 27 c40 15 87 33 105 41 17 7 55 23 83 35 72 29 263 165 263 186 0 7 12
22 26 36 39 36 134 164 134 181 0 8 7 23 15 34 8 10 15 29 15 41 0 12 4 24 9
27 13 8 46 117 61 200 15 80 8 235 -14 311 -47 164 -99 279 -152 335 -19 20
-34 40 -34 46 0 22 -192 193 -236 211 -39 16 -153 87 -149 93 2 3 13 51 25
106 30 139 37 345 15 444 -9 41 -20 98 -25 125 -5 28 -13 66 -18 86 -11 45
-110 229 -123 229 -5 0 -9 11 -9 23 0 22 -55 94 -126 166 -13 13 -24 29 -24
36 0 7 -18 24 -39 38 -22 15 -56 42 -75 62 -19 19 -40 35 -47 35 -6 0 -36 20
-67 44 -32 24 -84 55 -117 70 -33 15 -78 35 -100 45 -54 25 -170 59 -280 82
-71 16 -125 19 -257 18 l-167 -1 -38 30 c-21 16 -47 39 -57 51 -11 12 -24 21
-31 21 -6 0 -36 17 -66 38 -47 33 -82 53 -204 115 -11 6 -47 21 -80 33 -33 12
-90 34 -127 48 -37 14 -107 30 -155 36 -48 6 -106 15 -128 21 -57 13 -286 19
-375 10z"/>
<path d="M2170 4816 c-94 -27 -134 -52 -181 -113 -26 -33 -53 -77 -60 -99 -12
-33 -14 -357 -14 -2009 0 -2163 -5 -2010 62 -2091 18 -23 33 -46 33 -53 0 -6
6 -11 14 -11 8 0 21 -9 28 -19 8 -11 41 -30 73 -43 l60 -23 1205 -3 c846 -2
1224 0 1270 8 140 24 201 70 267 200 17 33 18 141 21 2025 2 1699 0 1996 -12
2032 -21 61 -91 151 -124 159 -15 4 -45 17 -67 28 -40 21 -43 21 -1285 23
-992 1 -1254 -1 -1290 -11z m2520 -218 c42 -30 50 -70 50 -240 l0 -148 -1300
0 -1300 0 0 173 c1 185 2 192 55 220 27 15 145 16 1248 17 l1218 0 29 -22z
m60 -1993 l0 -1395 -1305 0 -1305 0 0 1395 0 1395 1305 0 1305 0 0 -1395z
m-10 -1788 l0 -182 -26 -28 c-14 -16 -37 -32 -51 -38 -37 -14 -2428 -12 -2456
2 -12 6 -32 21 -44 32 -22 20 -23 26 -23 209 l0 188 1300 0 1300 0 0 -183z"/>
<path d="M3120 4415 l0 -105 320 0 320 0 0 105 0 105 -320 0 -320 0 0 -105z"/>
<path d="M3100 3486 c-25 -14 -59 -32 -77 -40 -17 -9 -34 -20 -38 -26 -3 -5
-12 -10 -20 -10 -8 0 -43 -20 -78 -44 -35 -24 -72 -46 -82 -48 -10 -1 -34 -25
-53 -52 -45 -61 -47 -112 -9 -181 l27 -47 -22 -32 c-43 -60 -72 -86 -100 -86
-72 0 -157 -68 -179 -143 -5 -17 -9 -102 -9 -188 0 -170 15 -243 51 -254 10
-4 19 -13 19 -20 0 -20 46 -42 104 -50 50 -8 64 -18 104 -73 27 -38 27 -52 2
-99 -26 -50 -25 -108 3 -158 17 -29 45 -54 107 -92 47 -28 106 -65 132 -82 26
-17 53 -31 60 -31 6 0 20 -8 30 -17 28 -26 172 -25 216 2 17 10 32 24 32 30 0
5 12 22 25 37 21 25 31 28 87 28 l64 0 47 -54 c42 -46 56 -55 101 -64 66 -13
118 -1 201 46 33 19 74 42 90 50 17 9 35 21 42 27 6 7 36 24 66 39 45 23 59
37 81 80 33 64 33 103 1 167 l-26 50 30 42 c39 57 48 63 102 71 26 4 67 20 92
37 69 46 77 74 77 293 0 228 -10 259 -92 300 -29 14 -69 26 -89 26 -29 0 -39
5 -44 20 -3 11 -10 20 -14 20 -5 0 -20 18 -35 40 l-26 39 25 47 c14 26 25 62
25 81 0 50 -49 140 -83 152 -15 6 -51 25 -80 44 -28 19 -83 51 -120 71 -37 20
-82 46 -100 56 -38 23 -95 26 -140 6 -32 -14 -117 -92 -117 -108 0 -4 -33 -8
-73 -8 l-73 0 -31 44 c-42 59 -74 79 -136 83 -41 3 -62 -2 -97 -21z m85 -227
c4 -12 21 -41 39 -65 30 -42 33 -44 71 -39 107 15 182 17 252 5 66 -10 77 -10
84 3 5 8 24 33 43 56 19 22 36 46 38 53 3 9 15 5 39 -13 19 -14 46 -29 62 -33
15 -3 27 -11 27 -16 0 -6 7 -10 16 -10 9 0 29 -9 45 -20 l28 -21 -20 -35 c-10
-19 -31 -47 -44 -62 -14 -15 -25 -29 -25 -32 0 -4 16 -24 36 -46 61 -65 108
-145 145 -241 7 -20 16 -22 91 -25 l83 -3 3 -122 3 -123 -91 0 c-56 0 -90 -4
-90 -10 0 -25 -94 -202 -117 -219 -13 -11 -33 -31 -44 -45 l-21 -26 29 -38
c59 -76 64 -88 45 -105 -21 -18 -93 -57 -106 -57 -6 0 -27 -12 -49 -27 -26
-18 -41 -23 -45 -16 -4 6 -19 26 -34 45 -15 18 -35 43 -45 56 -18 23 -20 23
-87 11 -66 -11 -180 -8 -253 7 -29 6 -34 3 -60 -36 -15 -24 -36 -58 -46 -76
-19 -38 -21 -39 -39 -21 -20 20 -103 67 -119 67 -8 1 -27 11 -43 24 -33 28
-32 34 32 124 l24 33 -29 32 c-16 18 -41 45 -56 61 -15 16 -27 37 -27 46 0 10
-6 23 -13 29 -8 6 -26 40 -42 76 l-27 65 -84 0 -84 0 0 120 0 120 78 0 79 0
26 58 c48 104 83 161 124 203 l41 41 -37 73 -38 73 28 21 c16 12 35 21 42 21
8 0 20 7 27 15 7 8 20 15 29 15 9 0 30 11 46 25 37 30 52 31 60 4z"/>
<path d="M3350 2978 c-19 -5 -51 -12 -70 -15 -45 -7 -71 -25 -143 -94 -131
-126 -155 -345 -54 -492 40 -58 122 -130 162 -143 22 -7 58 -20 80 -28 53 -20
188 -20 240 0 22 9 57 20 78 26 42 12 125 92 167 161 67 111 66 293 -3 396
-31 46 -104 122 -139 145 -37 24 -172 56 -233 55 -27 -1 -66 -5 -85 -11z m187
-216 c53 -29 96 -98 101 -163 4 -48 0 -64 -22 -101 -36 -62 -53 -75 -119 -92
-50 -13 -64 -13 -113 0 -61 16 -66 19 -112 83 -51 70 -43 164 19 225 16 15 29
32 29 36 0 31 164 40 217 12z"/>
<path d="M2670 790 l0 -100 115 0 115 0 0 100 0 100 -115 0 -115 0 0 -100z"/>
<path d="M3322 793 l3 -98 115 0 115 0 3 98 3 97 -121 0 -121 0 3 -97z"/>
<path d="M3980 790 l0 -100 115 0 115 0 0 100 0 100 -115 0 -115 0 0 -100z"/>
</g>
</svg>
